<svg xmlns="http://www.w3.org/2000/svg" viewBox="0 0 48 48" fill="none">
  <rect width="48" height="48" rx="10" fill="#3b82f6"/>
  <path d="M10 16a2 2 0 0 1 2-2h24a2 2 0 0 1 2 2v16a2 2 0 0 1-2 2H12a2 2 0 0 1-2-2V16z" fill="white" fill-opacity="0.15"/>
  <path d="M10 17l14 9 14-9" stroke="white" stroke-width="2" stroke-linecap="round" stroke-linejoin="round"/>
  <path d="M10 16h28M10 32h28" stroke="white" stroke-width="0" />
  <rect x="10" y="14" width="28" height="20" rx="2" stroke="white" stroke-width="1.5" fill="none"/>
  <path d="M10 17.5l14 8.5 14-8.5" stroke="white" stroke-width="1.5" stroke-linecap="round" stroke-linejoin="round" fill="none"/>
</svg>
